<svg width="26" height="26" viewBox="0 0 26 26" fill="none" xmlns="http://www.w3.org/2000/svg">
<path d="M10.1715 16.2143H12.2286L13.2572 13.2571H17.95L18.9786 16.2143H20.9715L16.6 4.64282H14.5429L10.1715 16.2143ZM13.8357 11.5857L15.5072 6.76425H15.6357L17.3072 11.5857H13.8357ZM7.85717 20.7143C7.15003 20.7143 6.54488 20.4627 6.04174 19.9595C5.5386 19.4564 5.2866 18.8508 5.28574 18.1428V2.71425C5.28574 2.00711 5.53774 1.40197 6.04174 0.898822C6.54574 0.395679 7.15088 0.143679 7.85717 0.142822H23.2857C23.9929 0.142822 24.5985 0.394822 25.1025 0.898822C25.6065 1.40282 25.858 2.00797 25.8572 2.71425V18.1428C25.8572 18.85 25.6056 19.4555 25.1025 19.9595C24.5993 20.4635 23.9937 20.7151 23.2857 20.7143H7.85717ZM2.71431 25.8571C2.00717 25.8571 1.40203 25.6055 0.898883 25.1024C0.395741 24.5993 0.14374 23.9937 0.142883 23.2857V5.28568H2.71431V23.2857H20.7143V25.8571H2.71431Z" fill="white"/>
</svg>
