<svg width="26" height="17" viewBox="0 0 26 17" fill="none" xmlns="http://www.w3.org/2000/svg">
<path d="M3.48602 0.512085C2.66968 0.512085 1.88678 0.836374 1.30955 1.41361C0.732308 1.99085 0.40802 2.77375 0.40802 3.59009V13.8501C0.40802 14.6664 0.732308 15.4493 1.30955 16.0266C1.88678 16.6038 2.66968 16.9281 3.48602 16.9281H13.746C14.5624 16.9281 15.3453 16.6038 15.9225 16.0266C16.4997 15.4493 16.824 14.6664 16.824 13.8501V3.59009C16.824 2.77375 16.4997 1.99085 15.9225 1.41361C15.3453 0.836374 14.5624 0.512085 13.746 0.512085H3.48602ZM25.032 1.53808C25.0318 1.33529 24.9716 1.1371 24.8588 0.968542C24.7461 0.799984 24.5859 0.668618 24.3985 0.591036C24.2112 0.513455 24.005 0.493139 23.8061 0.532652C23.6072 0.572166 23.4245 0.669738 23.281 0.813045L19.177 4.91704C18.9845 5.10927 18.8763 5.37006 18.876 5.64209V11.7981C18.876 12.0703 18.9841 12.3316 19.177 12.5231L23.281 16.6271C23.4245 16.7704 23.6072 16.868 23.8061 16.9075C24.005 16.947 24.2112 16.9267 24.3985 16.8491C24.5859 16.7716 24.7461 16.6402 24.8588 16.4716C24.9716 16.3031 25.0318 16.1049 25.032 15.9021V1.53808Z" fill="white"/>
</svg>
